<svg width="117" height="36" viewBox="0 0 117 36" fill="none" xmlns="http://www.w3.org/2000/svg">
<path d="M16.3315 8.58147C16.3315 13.0913 12.6755 16.7472 8.16573 16.7472C3.65592 16.7472 0 13.0913 0 8.58147C0 4.07166 3.65592 0.415741 8.16573 0.415741C12.6755 0.415741 16.3315 4.07166 16.3315 8.58147Z" fill="#0073B4"/>
<circle cx="8.16574" cy="28.7557" r="3.36236" fill="#0073B4"/>
<circle cx="28.3399" cy="8.58148" r="3.86236" fill="white" stroke="#0073B4"/>
<path d="M34.5843 29.236C34.5843 32.4194 32.0036 35 28.8202 35C25.6368 35 23.0562 32.4194 23.0562 29.236C23.0562 26.0526 25.6368 23.4719 28.8202 23.4719C32.0036 23.4719 34.5843 26.0526 34.5843 29.236Z" fill="#0073B4"/>
<path d="M42.992 27V11.304H45.776V27H42.992ZM48.7814 21.96V19.944H54.4934V21.96H48.7814ZM61.3878 27.288C59.9158 27.288 58.7398 26.744 57.8598 25.656C56.9798 24.568 56.5398 23.056 56.5398 21.12C56.5398 19.84 56.7718 18.736 57.2358 17.808C57.7158 16.88 58.3398 16.168 59.1078 15.672C59.8758 15.176 60.6838 14.928 61.5318 14.928C62.2038 14.928 62.7718 15.048 63.2358 15.288C63.7158 15.512 64.1798 15.824 64.6278 16.224L64.5318 14.328V10.056H67.2918V27H65.0118L64.8198 25.728H64.7238C64.2918 26.16 63.7878 26.528 63.2118 26.832C62.6358 27.136 62.0278 27.288 61.3878 27.288ZM62.0598 25.008C62.9398 25.008 63.7638 24.568 64.5318 23.688V18.192C64.1318 17.824 63.7318 17.568 63.3318 17.424C62.9318 17.28 62.5318 17.208 62.1318 17.208C61.3798 17.208 60.7318 17.552 60.1878 18.24C59.6598 18.912 59.3958 19.864 59.3958 21.096C59.3958 22.36 59.6278 23.328 60.0918 24C60.5558 24.672 61.2118 25.008 62.0598 25.008ZM75.8467 27.288C74.7587 27.288 73.7747 27.048 72.8947 26.568C72.0147 26.072 71.3187 25.368 70.8067 24.456C70.2947 23.528 70.0387 22.416 70.0387 21.12C70.0387 19.84 70.2947 18.736 70.8067 17.808C71.3347 16.88 72.0147 16.168 72.8467 15.672C73.6787 15.176 74.5507 14.928 75.4627 14.928C76.5347 14.928 77.4307 15.168 78.1507 15.648C78.8707 16.112 79.4147 16.768 79.7827 17.616C80.1507 18.448 80.3347 19.416 80.3347 20.52C80.3347 21.096 80.2947 21.544 80.2147 21.864H72.7267C72.8547 22.904 73.2307 23.712 73.8547 24.288C74.4787 24.864 75.2627 25.152 76.2067 25.152C76.7187 25.152 77.1907 25.08 77.6227 24.936C78.0707 24.776 78.5107 24.56 78.9427 24.288L79.8787 26.016C79.3187 26.384 78.6947 26.688 78.0067 26.928C77.3187 27.168 76.5987 27.288 75.8467 27.288ZM72.7027 19.992H77.9347C77.9347 19.08 77.7347 18.368 77.3347 17.856C76.9347 17.328 76.3347 17.064 75.5347 17.064C74.8467 17.064 74.2307 17.32 73.6867 17.832C73.1587 18.328 72.8307 19.048 72.7027 19.992ZM85.5455 27.288C84.5215 27.288 83.6815 26.968 83.0255 26.328C82.3855 25.688 82.0655 24.856 82.0655 23.832C82.0655 22.568 82.6175 21.592 83.7215 20.904C84.8255 20.2 86.5855 19.72 89.0015 19.464C88.9855 18.84 88.8175 18.304 88.4975 17.856C88.1935 17.392 87.6415 17.16 86.8415 17.16C86.2655 17.16 85.6975 17.272 85.1375 17.496C84.5935 17.72 84.0575 17.992 83.5295 18.312L82.5215 16.464C83.1775 16.048 83.9135 15.688 84.7295 15.384C85.5615 15.08 86.4415 14.928 87.3695 14.928C88.8415 14.928 89.9375 15.368 90.6575 16.248C91.3935 17.112 91.7615 18.368 91.7615 20.016V27H89.4815L89.2895 25.704H89.1935C88.6655 26.152 88.0975 26.528 87.4895 26.832C86.8975 27.136 86.2495 27.288 85.5455 27.288ZM86.4335 25.128C86.9135 25.128 87.3455 25.016 87.7295 24.792C88.1295 24.552 88.5535 24.232 89.0015 23.832V21.192C87.4015 21.4 86.2895 21.712 85.6655 22.128C85.0415 22.528 84.7295 23.024 84.7295 23.616C84.7295 24.144 84.8895 24.528 85.2095 24.768C85.5295 25.008 85.9375 25.128 86.4335 25.128ZM97.7525 27.288C96.7765 27.288 96.0805 26.992 95.6645 26.4C95.2645 25.808 95.0645 25 95.0645 23.976V10.056H97.8245V24.12C97.8245 24.456 97.8885 24.696 98.0165 24.84C98.1445 24.968 98.2805 25.032 98.4245 25.032C98.4885 25.032 98.5445 25.032 98.5925 25.032C98.6565 25.016 98.7445 25 98.8565 24.984L99.2165 27.048C99.0565 27.112 98.8485 27.168 98.5925 27.216C98.3525 27.264 98.0725 27.288 97.7525 27.288Z" fill="#0073B4"/>
</svg>
