<svg width="172" height="245" viewBox="0 0 172 245" fill="none" xmlns="http://www.w3.org/2000/svg">
<rect y="22" width="100" height="206" rx="3" fill="black"/>
<path d="M106.416 23.1898L168.03 35.4484C168.747 35.591 169.256 36.2299 169.236 36.9608L163.635 240.59C163.609 241.553 162.695 242.242 161.762 242.001L99.9205 226.083C99.2419 225.909 98.7747 225.287 98.7951 224.587L104.624 24.6172C104.651 23.6894 105.506 23.0086 106.416 23.1898Z" fill="white" stroke="black" stroke-width="3"/>
<path d="M44 22H56L65.3109 38.25H35L44 22Z" fill="white"/>
<path d="M66.0496 37.8074C66.0497 37.8074 66.0488 37.8087 66.0467 37.8113C66.0484 37.8087 66.0495 37.8074 66.0496 37.8074ZM65.3084 37.751C65.5211 37.8424 65.6825 37.9268 65.8016 38C65.6825 38.0732 65.5211 38.1576 65.3084 38.249C64.5749 38.5643 63.452 38.8713 61.9884 39.1375C59.0776 39.6667 55.0153 40 50.5 40C45.9847 40 41.9224 39.6667 39.0116 39.1375C37.548 38.8713 36.4251 38.5643 35.6916 38.249C35.4789 38.1576 35.3175 38.0732 35.1984 38C35.3175 37.9268 35.4789 37.8424 35.6916 37.751C36.4251 37.4357 37.548 37.1287 39.0116 36.8625C41.9224 36.3333 45.9847 36 50.5 36C55.0153 36 59.0776 36.3333 61.9884 36.8625C63.452 37.1287 64.5749 37.4357 65.3084 37.751ZM34.9504 37.8074C34.9505 37.8074 34.9516 37.8087 34.9534 37.8114C34.9512 37.8087 34.9503 37.8074 34.9504 37.8074ZM34.9504 38.1926C34.9503 38.1926 34.9512 38.1913 34.9534 38.1886C34.9516 38.1913 34.9505 38.1926 34.9504 38.1926ZM66.0467 38.1887C66.0488 38.1913 66.0497 38.1926 66.0496 38.1926C66.0495 38.1926 66.0484 38.1913 66.0467 38.1887Z" fill="white" stroke="black" stroke-width="2"/>
<path d="M38.409 38H62.409L85.8179 164.75H20L38.409 38Z" fill="url(#paint0_linear_304_18)"/>
<ellipse cx="52.5" cy="210" rx="39.5" ry="7" fill="white"/>
<path d="M88.7108 32.3585C92.0282 33.4715 95.6892 37.0524 95.6892 37.0524C99.9169 33.5909 104.284 33.3044 104.284 33.3044C102.955 28.3539 105.707 24.9227 105.707 24.9227" stroke="#CACACA"/>
<path d="M84.6679 35.9137C88.4165 35.8022 93.7581 42.1593 93.7581 42.1593C100.92 36.1314 110.082 35.1791 110.082 35.1791C108.62 28.4584 111.758 23.683 111.758 23.683" stroke="#CACACA"/>
<path d="M79.0859 42.7962C85.1362 42.6069 92.0051 49.7855 92.0051 49.7855C103.371 40.9544 117.26 40.2309 117.26 40.2309C115.997 32.7896 118 27.7196 119.896 25.0121" stroke="#CACACA"/>
<path d="M96.6441 30.962L95.7581 36.8346L93.6851 42.2475L92.0689 49.7983L89.501 57.6454" stroke="#CACACA"/>
<path d="M98.9915 30.2314L104.42 33.3176L110.194 35.4654L117.628 40.2113L129.184 46.5812" stroke="#CACACA"/>
<path d="M98.9615 30.0261C98.3197 30.0542 97.2521 30.6297 96.7985 30.9139C96.9023 29.6801 95.82 28.8583 95.2658 28.6017C95.5623 28.5094 96.1765 27.1739 96.4465 26.5177C97.3805 27.4285 98.3959 27.5559 98.7868 27.5058C98.1916 28.206 98.6553 29.4778 98.9615 30.0261Z" stroke="#CACACA"/>
<path d="M91.0237 35.0316C89.4721 32.8045 86.0085 30.8594 86.0085 30.8594C87.6642 26.9576 86.9258 23.644 86.9258 23.644C90.9008 23.5544 92.8556 20.7581 92.8556 20.7581" stroke="#CACACA"/>
<path d="M89.258 38.8161C88.5241 36.0011 82.6274 33.4098 82.6274 33.4098C85.5543 26.7646 84.2667 19.7364 84.2667 19.7364C89.5885 19.3597 92.4598 15.9832 92.4598 15.9832" stroke="#CACACA"/>
<path d="M85.3506 44.4716C84.1731 39.9262 77.332 36.3769 77.332 36.3769C81.4297 25.9911 78.9415 15.4935 78.9415 15.4935C84.7565 14.812 88.0944 12.2159 89.6969 10.2144" stroke="#CACACA"/>
<path d="M90.3345 28.8212L86.1556 30.7606L82.5777 33.4834L77.3085 36.3322L72.0262 39.9539" stroke="#CACACA"/>
<path d="M90.3669 26.9145L86.8864 23.5459L84.029 19.7152L78.8758 15.215L71.6154 8.00001" stroke="#CACACA"/>
<path d="M90.5262 26.8921C90.6451 27.3759 90.4494 28.2961 90.3366 28.6957C91.2326 28.3496 92.0802 28.9763 92.392 29.333C92.3961 29.0921 93.2565 28.3438 93.6862 27.9998C92.8046 27.503 92.4885 26.7748 92.4406 26.4729C92.049 27.0685 91.0012 27.0005 90.5262 26.8921Z" stroke="#CACACA"/>
<path d="M88.5707 21.4418C91.1348 20.7773 94.0894 18.2676 94.0894 18.2676C97.0982 21.1059 100.381 21.5541 100.381 21.5541C99.1147 25.2219 101.01 27.959 101.01 27.959" stroke="#CACACA"/>
<path d="M85.7064 18.5425C88.5312 18.8257 92.9023 14.3087 92.9023 14.3087C97.9904 19.2408 104.858 20.4462 104.858 20.4462C103.398 25.4436 105.514 29.2163 105.514 29.2163" stroke="#CACACA"/>
<path d="M81.8565 13.049C86.4153 13.5131 91.9833 8.45685 91.9833 8.45685C100.097 15.7288 110.547 17.0123 110.547 17.0123C109.198 22.5645 110.442 26.4994 111.73 28.6446" stroke="#CACACA"/>
<path d="M94.4873 22.9174L94.1299 18.4357L92.8518 14.2383L92.0321 8.4505L90.5095 2.38856" stroke="#CACACA"/>
<path d="M96.2211 23.5937L100.484 21.5513L104.958 20.2359L110.824 17.0467L119.889 12.8499" stroke="#CACACA"/>
<path d="M96.1875 23.7471C95.7044 23.6918 94.9288 23.2006 94.6013 22.9619C94.6142 23.8992 93.7533 24.4622 93.3212 24.6266C93.5402 24.712 93.9331 25.7531 94.1022 26.263C94.8558 25.6248 95.6293 25.5825 95.9218 25.6411C95.5096 25.0808 95.9272 24.145 96.1875 23.7471Z" stroke="#CACACA"/>
<ellipse cx="114.032" cy="39.199" rx="0.638237" ry="0.855686" transform="rotate(-41.7251 114.032 39.199)" fill="black"/>
<ellipse cx="115.33" cy="40.4464" rx="1.06019" ry="1.42141" transform="rotate(-41.7251 115.33 40.4464)" fill="black"/>
<path d="M115.888 39.9894L116.711 38.4855L118.589 39.8068" stroke="black"/>
<path d="M114.643 41.242L112.874 41.4004L113.35 43.7308" stroke="black"/>
<path d="M115.713 39.7543L116.143 38.0946L118.287 38.9156" stroke="black"/>
<path d="M114.492 40.9785L112.738 40.6986L112.629 43.0746" stroke="black"/>
<path d="M115.38 39.761L115.514 38.0518L117.769 38.4865" stroke="black"/>
<path d="M114.637 40.6656L112.958 40.0843L112.436 42.405" stroke="black"/>
<path d="M115.157 41.4658L114.17 42.3775L115.045 43.6172" stroke="black"/>
<path d="M116.451 40.1837L117.393 39.4998L118.63 40.3846" stroke="black"/>
<path d="M113.5 38.5848C113.463 38.4652 113.37 38.2454 113.302 38.3225" stroke="black"/>
<path d="M113.398 38.9817C113.277 38.9469 113.056 38.8597 113.131 38.7894" stroke="black"/>
<circle cx="160" cy="119" r="1.5" stroke="black"/>
<circle cx="160" cy="131" r="1.5" stroke="black"/>
<path d="M163.287 51.5452L109.079 39.3557C108.477 39.2204 107.897 39.6566 107.861 40.2723L107.815 41.0437C107.799 41.3284 107.935 41.6005 108.173 41.7577L108.502 41.9751C109.093 42.3658 108.786 43.2874 108.079 43.2456C107.835 43.2313 107.603 43.3455 107.465 43.5467L106.237 45.3451C106.016 45.668 106.004 46.0898 106.206 46.4248L107.222 48.1133C107.326 48.2862 107.376 48.4865 107.364 48.688L107.289 49.9532C107.26 50.4351 107.568 50.8654 108.037 50.9804C125.581 55.284 159.462 63.603 160.746 63.9506C162.015 64.2943 162.902 62.2391 163.214 61.0849C163.23 61.0239 163.239 60.9616 163.243 60.8984L163.321 59.5783C163.344 59.1845 163.134 58.8137 162.784 58.6319L161.169 57.7932C161.131 57.7734 161.089 57.7618 161.046 57.7593C160.71 57.7394 160.648 57.2699 160.967 57.1632L163.345 56.3695C163.651 56.2673 163.864 55.9891 163.883 55.667L163.974 54.1379L164.066 52.5798C164.095 52.0907 163.765 51.6527 163.287 51.5452Z" stroke="black" stroke-width="2"/>
<circle cx="115.5" cy="42.5" r="0.5" fill="black"/>
<circle cx="114.5" cy="50.5" r="0.5" fill="black"/>
<circle cx="152.5" cy="59.5001" r="0.5" fill="black"/>
<circle cx="153.5" cy="51.5001" r="0.5" fill="black"/>
<path d="M102.378 219.585L156.586 231.774C157.187 231.91 157.767 231.473 157.803 230.858L157.849 230.086C157.866 229.802 157.73 229.529 157.492 229.372L157.163 229.155C156.571 228.764 156.878 227.842 157.586 227.884C157.829 227.899 158.062 227.784 158.199 227.583L159.428 225.785C159.648 225.462 159.66 225.04 159.459 224.705L158.442 223.017C158.338 222.844 158.289 222.643 158.301 222.442L158.375 221.177C158.404 220.695 158.097 220.265 157.628 220.15C140.084 215.846 106.202 207.527 104.919 207.179C103.65 206.836 102.762 208.891 102.451 210.045C102.434 210.106 102.425 210.168 102.421 210.232L102.343 211.552C102.32 211.945 102.53 212.316 102.881 212.498L104.495 213.337C104.533 213.357 104.575 213.368 104.618 213.371C104.955 213.391 105.017 213.86 104.697 213.967L102.319 214.76C102.013 214.863 101.8 215.141 101.781 215.463L101.691 216.992L101.599 218.55C101.57 219.039 101.899 219.477 102.378 219.585Z" stroke="black" stroke-width="2"/>
<circle cx="150.164" cy="228.63" r="0.5" transform="rotate(180 150.164 228.63)" fill="black"/>
<circle cx="151.164" cy="220.63" r="0.5" transform="rotate(180 151.164 220.63)" fill="black"/>
<circle cx="113.164" cy="211.63" r="0.5" transform="rotate(180 113.164 211.63)" fill="black"/>
<circle cx="112.164" cy="219.63" r="0.5" transform="rotate(180 112.164 219.63)" fill="black"/>
<defs>
<linearGradient id="paint0_linear_304_18" x1="52.909" y1="29" x2="52.909" y2="210" gradientUnits="userSpaceOnUse">
<stop stop-color="white"/>
<stop offset="0.682292" stop-color="white" stop-opacity="0"/>
</linearGradient>
</defs>
</svg>
